<svg width="400" height="400" viewBox="90 50 490 450" fill="none" xmlns="http://www.w3.org/2000/svg">
  <g mask="url(#lightning)">
    <g transform="rotate(60 335 335)">
      <path
        d="M340.924 289.261L243.566 457.927L335.753 617.695L457.854 406.209L579.899 194.724H395.469L340.924 289.261Z"
        fill="#1697F6" />
      <path d="M213.71 406.209L220.104 417.331L311.179 259.51L348.598 194.724H335.755H91.6094L213.71 406.209Z"
        fill="#AEDDFF" />
      <path d="M395.469 194.724C441.618 346.595 335.753 617.695 335.753 617.695L243.566 457.927L395.469 194.724Z"
        fill="#1867C0" />
      <path d="M348.598 194.724C154.16 194.724 220.103 417.331 220.103 417.331L348.598 194.724Z" fill="#7BC6FF" />
    </g>
  </g>
  <mask id="lightning">
    <g transform="scale(14) translate(11.5 9.2)">
      <rect x="-50" y="-50" width="100" height="100" fill="white" />
      <path d="M11 15H6L13 1V9H18L11 23V15Z" fill="black" />
    </g>
  </mask>
</svg>
