<?xml version="1.0" encoding="UTF-8" standalone="no"?>
<svg
   y="551.165"
   x="960"
   version="1.1"
   width="412"
   height="67"
   viewBox="0 0 412 67"
   id="svg687764"
   sodipodi:docname="logo_dark.svg"
   inkscape:version="1.1 (c68e22c387, 2021-05-23)"
   xmlns:inkscape="http://www.inkscape.org/namespaces/inkscape"
   xmlns:sodipodi="http://sodipodi.sourceforge.net/DTD/sodipodi-0.dtd"
   xmlns:xlink="http://www.w3.org/1999/xlink"
   xmlns="http://www.w3.org/2000/svg"
   xmlns:svg="http://www.w3.org/2000/svg">
  <defs
     id="defs30">
    <linearGradient
       inkscape:collect="always"
       id="linearGradient598">
      <stop
         style="stop-color:#ffffff;stop-opacity:1;"
         offset="0"
         id="stop594" />
      <stop
         style="stop-color:#ffffff;stop-opacity:0;"
         offset="1"
         id="stop596" />
    </linearGradient>
    <linearGradient
       inkscape:collect="always"
       xlink:href="#linearGradient598"
       id="linearGradient600"
       x1="585.53162"
       y1="-4.7693677"
       x2="-42.557434"
       y2="42.557434"
       gradientUnits="userSpaceOnUse" />
    <linearGradient
       inkscape:collect="always"
       xlink:href="#linearGradient598"
       id="linearGradient602"
       x1="585.53162"
       y1="-4.7693677"
       x2="-42.557434"
       y2="42.557434"
       gradientUnits="userSpaceOnUse" />
    <linearGradient
       inkscape:collect="always"
       xlink:href="#linearGradient598"
       id="linearGradient604"
       x1="585.53162"
       y1="-4.7693677"
       x2="-42.557434"
       y2="42.557434"
       gradientUnits="userSpaceOnUse" />
    <linearGradient
       inkscape:collect="always"
       xlink:href="#linearGradient598"
       id="linearGradient606"
       x1="585.53162"
       y1="-4.7693677"
       x2="-42.557434"
       y2="42.557434"
       gradientUnits="userSpaceOnUse" />
    <linearGradient
       inkscape:collect="always"
       xlink:href="#linearGradient598"
       id="linearGradient608"
       x1="585.53162"
       y1="-4.7693677"
       x2="-42.557434"
       y2="42.557434"
       gradientUnits="userSpaceOnUse" />
    <linearGradient
       inkscape:collect="always"
       xlink:href="#linearGradient598"
       id="linearGradient610"
       x1="585.53162"
       y1="-4.7693677"
       x2="-42.557434"
       y2="42.557434"
       gradientUnits="userSpaceOnUse" />
    <linearGradient
       inkscape:collect="always"
       xlink:href="#linearGradient598"
       id="linearGradient612"
       x1="585.53162"
       y1="-4.7693677"
       x2="-42.557434"
       y2="42.557434"
       gradientUnits="userSpaceOnUse" />
    <linearGradient
       inkscape:collect="always"
       xlink:href="#linearGradient598"
       id="linearGradient614"
       x1="585.53162"
       y1="-4.7693677"
       x2="-42.557434"
       y2="42.557434"
       gradientUnits="userSpaceOnUse" />
    <linearGradient
       inkscape:collect="always"
       xlink:href="#linearGradient598"
       id="linearGradient616"
       x1="585.53162"
       y1="-4.7693677"
       x2="-42.557434"
       y2="42.557434"
       gradientUnits="userSpaceOnUse" />
    <linearGradient
       inkscape:collect="always"
       xlink:href="#linearGradient598"
       id="linearGradient618"
       x1="585.53162"
       y1="-4.7693677"
       x2="-42.557434"
       y2="42.557434"
       gradientUnits="userSpaceOnUse" />
    <linearGradient
       inkscape:collect="always"
       xlink:href="#linearGradient598"
       id="linearGradient620"
       x1="585.53162"
       y1="-4.7693677"
       x2="-42.557434"
       y2="42.557434"
       gradientUnits="userSpaceOnUse" />
    <linearGradient
       inkscape:collect="always"
       xlink:href="#linearGradient598"
       id="linearGradient622"
       x1="585.53162"
       y1="-4.7693677"
       x2="-42.557434"
       y2="42.557434"
       gradientUnits="userSpaceOnUse" />
    <linearGradient
       inkscape:collect="always"
       xlink:href="#linearGradient598"
       id="linearGradient624"
       x1="585.53162"
       y1="-4.7693677"
       x2="-42.557434"
       y2="42.557434"
       gradientUnits="userSpaceOnUse" />
  </defs>
  <sodipodi:namedview
     id="namedview28"
     pagecolor="#ffffff"
     bordercolor="#666666"
     borderopacity="1.0"
     inkscape:pageshadow="2"
     inkscape:pageopacity="0.0"
     inkscape:pagecheckerboard="0"
     showgrid="false"
     inkscape:zoom="2.7257282"
     inkscape:cx="206"
     inkscape:cy="33.385574"
     inkscape:window-width="3440"
     inkscape:window-height="1377"
     inkscape:window-x="-8"
     inkscape:window-y="-8"
     inkscape:window-maximized="1"
     inkscape:current-layer="svg687764" />
  <metadata
     id="metadata687770">image/svg+xml</metadata>
  <linearGradient
     id="3d_gradient2-logo-be9fcf93-76f3-4195-b816-3f382377cd48"
     x1="30%"
     y1="120%"
     x2="-10%"
     y2="30%"
     spreadMethod="pad">
    <stop
       offset="0%"
       stop-color="#ffffff"
       id="stop687745" />
    <stop
       offset="100%"
       stop-color="#000000"
       id="stop687747" />
  </linearGradient>
  <linearGradient
     id="3d_gradient3-logo-be9fcf93-76f3-4195-b816-3f382377cd48"
     x1="30%"
     y1="120%"
     x2="-10%"
     y2="30%"
     spreadMethod="pad"
     gradientTransform="rotate(-30)">
    <stop
       offset="0%"
       stop-color="#ffffff"
       id="stop687750" />
    <stop
       offset="50%"
       stop-color="#cccccc"
       id="stop687752" />
    <stop
       offset="100%"
       stop-color="#000000"
       id="stop687754" />
  </linearGradient>
  <path
     d="M 1.4778395,65.192051 11.574597,5.8247146 h 7.141609 L 28.812963,65.192051 H 23.641454 L 15.367038,13.015688 H 14.923765 L 6.6493495,65.192051 Z M 6.1568255,50.72649 V 42.782972 H 23.887716 v 7.943518 z"
     style="font-size:65.7141px;line-height:1.25;font-family:SansSerif;-inkscape-font-specification:SansSerif;fill:url(#linearGradient600);stroke-width:1.64286;fill-opacity:1"
     id="path19232" />
  <path
     d="M 42.209635,65.192051 V 5.8247146 h 4.925248 V 65.192051 Z m -8.151284,0 V 57.248535 H 55.33542 v 7.943516 z m 0,-51.423819 V 5.8247146 H 55.33542 v 7.9435174 z"
     style="font-size:65.7141px;line-height:1.25;font-family:SansSerif;-inkscape-font-specification:SansSerif;fill:url(#linearGradient602);stroke-width:1.64286;fill-opacity:1"
     id="path19234" />
  <path
     d="m 74.248369,66.028212 q -11.919099,0 -11.919099,-30.101749 0,-30.9379084 11.919099,-30.9379084 11.919096,0 11.919096,30.9379084 0,30.101749 -11.919096,30.101749 z m 0,-23.830551 q -1.649958,0 -2.684259,-1.714128 -1.009676,-1.755935 -1.009676,-4.55707 0,-2.842943 1.009676,-4.55707 1.034301,-1.714128 2.684259,-1.714128 1.674586,0 2.684258,1.714128 1.009679,1.714127 1.009679,4.55707 0,2.801135 -1.009679,4.55707 -1.009672,1.714128 -2.684258,1.714128 z m 0,16.137881 q 6.649081,0 6.649081,-22.409079 0,-23.245239 -6.649081,-23.245239 -6.649084,0 -6.649084,23.245239 0,22.409079 6.649084,22.409079 z"
     style="font-size:65.7141px;line-height:1.25;font-family:SansSerif;-inkscape-font-specification:SansSerif;fill:url(#linearGradient604);stroke-width:1.64286;fill-opacity:1"
     id="path19236" />
  <path
     d="m 103.79985,66.028212 q -11.919095,0 -11.919095,-30.101749 0,-30.9379084 11.919095,-30.9379084 11.9191,0 11.9191,30.9379084 0,30.101749 -11.9191,30.101749 z m 0,-23.830551 q -1.64996,0 -2.68426,-1.714128 -1.00967,-1.755935 -1.00967,-4.55707 0,-2.842943 1.00967,-4.55707 1.0343,-1.714128 2.68426,-1.714128 1.67458,0 2.68426,1.714128 1.00968,1.714127 1.00968,4.55707 0,2.801135 -1.00968,4.55707 -1.00968,1.714128 -2.68426,1.714128 z m 0,16.137881 q 6.64909,0 6.64909,-22.409079 0,-23.245239 -6.64909,-23.245239 -6.649081,0 -6.649081,23.245239 0,22.409079 6.649081,22.409079 z"
     style="font-size:65.7141px;line-height:1.25;font-family:SansSerif;-inkscape-font-specification:SansSerif;fill:url(#linearGradient606);stroke-width:1.64286;fill-opacity:1"
     id="path19238" />
  <path
     d="M 149.23527,65.192051 159.33203,5.8247146 h 7.14161 L 176.5704,65.192051 h -5.17152 l -8.27441,-52.176363 h -0.44327 l -8.27442,52.176363 z m 4.67899,-14.465561 v -7.943518 h 17.73088 v 7.943518 z"
     style="font-size:65.7141px;line-height:1.25;font-family:SansSerif;-inkscape-font-specification:SansSerif;fill:url(#linearGradient608);stroke-width:1.64286;fill-opacity:1"
     id="path19240" />
  <path
     d="m 190.43496,66.028212 q -2.95515,0 -5.07301,-0.292657 -2.09323,-0.292656 -3.84169,-0.961583 l 0.59103,-8.027134 q 2.58576,0.668929 4.55585,1.003393 1.99473,0.334463 3.76782,0.334463 3.96482,0 5.73791,-1.296048 1.79772,-1.337854 1.79772,-4.222606 0,-2.006782 -0.64028,-2.968367 -0.61566,-1.003391 -1.92085,-1.546895 l -6.0088,-2.592095 q -3.86632,-1.67232 -5.68866,-4.138991 -1.79772,-2.46667 -1.79772,-7.483628 0,-7.274589 3.27529,-10.535612 3.29992,-3.261023 10.61391,-3.261023 1.89622,0 3.52155,0.20904 1.64996,0.167232 3.3738,0.62712 l -0.54178,7.692669 q -1.99473,-0.334465 -3.52155,-0.459887 -1.52683,-0.125423 -2.97978,-0.125423 -4.38347,0 -6.35357,1.296047 -1.9701,1.25424 -1.9701,4.13899 0,1.923167 0.81267,2.801135 0.81266,0.83616 2.48725,1.546895 l 4.82674,2.006784 q 4.11258,1.672319 6.0088,4.473454 1.92085,2.801135 1.92085,8.152557 0,7.149165 -3.07828,10.410187 -3.07828,3.219216 -9.87512,3.219215 z"
     style="font-size:65.7141px;line-height:1.25;font-family:SansSerif;-inkscape-font-specification:SansSerif;fill:url(#linearGradient610);stroke-width:1.64286;fill-opacity:1"
     id="path19242" />
  <path
     d="m 219.98644,66.028212 q -2.95515,0 -5.07301,-0.292657 -2.09323,-0.292656 -3.84169,-0.961583 l 0.59103,-8.027134 q 2.58575,0.668929 4.55585,1.003393 1.99473,0.334463 3.76782,0.334463 3.96482,0 5.73791,-1.296048 1.79772,-1.337854 1.79772,-4.222606 0,-2.006782 -0.64028,-2.968367 -0.61566,-1.003391 -1.92086,-1.546895 l -6.0088,-2.592095 q -3.86632,-1.67232 -5.68865,-4.138991 -1.79772,-2.46667 -1.79772,-7.483628 0,-7.274589 3.27529,-10.535612 3.29992,-3.261023 10.61391,-3.261023 1.89622,0 3.52155,0.20904 1.64996,0.167232 3.3738,0.62712 l -0.54179,7.692669 q -1.99472,-0.334465 -3.52154,-0.459887 -1.52684,-0.125423 -2.97978,-0.125423 -4.38347,0 -6.35357,1.296047 -1.9701,1.25424 -1.9701,4.13899 0,1.923167 0.81267,2.801135 0.81266,0.83616 2.48724,1.546895 l 4.82675,2.006784 q 4.11258,1.672319 6.0088,4.473454 1.92085,2.801135 1.92085,8.152557 0,7.149165 -3.07828,10.410187 -3.07828,3.219216 -9.87512,3.219215 z"
     style="font-size:65.7141px;line-height:1.25;font-family:SansSerif;-inkscape-font-specification:SansSerif;fill:url(#linearGradient612);stroke-width:1.64286;fill-opacity:1"
     id="path19244" />
  <path
     d="M 250.67073,65.192051 V 23.384068 h 5.22077 v 41.807983 z m -9.94899,0 v -7.274589 h 10.44152 v 7.274589 z m 14.67723,0 v -7.274589 h 8.52068 v 7.274589 z M 242.19931,28.150179 v -7.27459 h 13.69219 v 7.27459 z m 10.90942,-14.298331 q -1.5022,0 -2.58575,-1.797743 -1.05893,-1.839552 -1.05893,-4.3898394 0,-2.592095 1.05893,-4.389838 1.08355,-1.797743 2.58575,-1.797743 1.52683,0 2.58575,1.797743 1.05893,1.797743 1.05893,4.389838 0,2.5502874 -1.05893,4.3898394 -1.05892,1.797743 -2.58575,1.797743 z"
     style="font-size:65.7141px;line-height:1.25;font-family:SansSerif;-inkscape-font-specification:SansSerif;fill:url(#linearGradient614);stroke-width:1.64286;fill-opacity:1"
     id="path19246" />
  <path
     d="m 279.08942,66.028212 q -2.95515,0 -5.07301,-0.292657 -2.09323,-0.292656 -3.84169,-0.961583 l 0.59103,-8.027134 q 2.58575,0.668929 4.55585,1.003393 1.99472,0.334463 3.76782,0.334463 3.96482,0 5.73791,-1.296048 1.79772,-1.337854 1.79772,-4.222606 0,-2.006782 -0.64028,-2.968367 -0.61566,-1.003391 -1.92085,-1.546895 l -6.00881,-2.592095 q -3.86631,-1.67232 -5.68866,-4.138991 -1.79771,-2.46667 -1.79771,-7.483628 0,-7.274589 3.27529,-10.535612 3.29991,-3.261023 10.6139,-3.261023 1.89623,0 3.52156,0.20904 1.64996,0.167232 3.37379,0.62712 l -0.54177,7.692669 q -1.99473,-0.334465 -3.52156,-0.459887 -1.52682,-0.125423 -2.97977,-0.125423 -4.38347,0 -6.35357,1.296047 -1.9701,1.25424 -1.9701,4.13899 0,1.923167 0.81267,2.801135 0.81266,0.83616 2.48725,1.546895 l 4.82674,2.006784 q 4.11258,1.672319 6.0088,4.473454 1.92085,2.801135 1.92085,8.152557 0,7.149165 -3.07828,10.410187 -3.07828,3.219216 -9.87512,3.219215 z"
     style="font-size:65.7141px;line-height:1.25;font-family:SansSerif;-inkscape-font-specification:SansSerif;fill:url(#linearGradient616);stroke-width:1.64286;fill-opacity:1"
     id="path19248" />
  <path
     d="m 315.3885,66.028212 q -5.93493,0 -8.59456,-4.180799 -2.63501,-4.180798 -2.63501,-13.378556 v -7.525436 h 5.22077 v 7.107357 q 0,5.267806 1.50219,7.650861 1.52683,2.383055 4.99913,2.383055 1.23131,0 2.61038,-0.20904 1.37907,-0.250847 3.15216,-0.627119 l 0.59103,7.776284 q -1.72383,0.501696 -3.37379,0.752544 -1.62534,0.250849 -3.4723,0.250849 z M 304.15893,44.28806 V 7.4970336 h 5.22077 V 44.28806 Z m -6.55058,-16.137881 v -7.27459 h 23.64119 v 7.27459 z"
     style="font-size:65.7141px;line-height:1.25;font-family:SansSerif;-inkscape-font-specification:SansSerif;fill:url(#linearGradient618);stroke-width:1.64286;fill-opacity:1"
     id="path19250" />
  <path
     d="m 345.58024,65.610131 -0.34477,-13.127707 -0.68953,-3.679102 V 37.347935 q 0,-4.431646 -1.84696,-6.480238 -1.82235,-2.090399 -5.4424,-2.257631 l -6.25507,-0.292657 0.49253,-7.8599 5.27001,0.125423 q 6.4767,0.167232 9.60423,4.76611 3.15216,4.55707 3.15216,13.336747 v 18.479128 l 4.43272,0.919775 v 7.107358 z m -9.21021,0.418081 q -4.08795,0 -6.32894,-3.34464 -2.24099,-3.344639 -2.24099,-9.448604 0,-7.023742 3.07828,-10.78646 3.10291,-3.762718 8.74232,-3.762718 2.33949,0 4.16183,0.501695 1.84697,0.459889 3.27529,1.421472 l -1.08356,6.02035 q -1.64995,-0.627121 -3.22603,-0.710735 -1.57608,-0.125423 -3.22604,-0.125423 -6.79684,0 -6.79684,7.023741 0,2.926558 1.15743,4.515262 1.18206,1.588704 3.32454,1.588704 2.438,0 4.06333,-1.421472 1.64996,-1.421472 2.46263,-3.637295 0.81266,-2.215823 0.81266,-4.55707 v -4.849726 l 1.52683,11.371771 h -2.0686 l 0.83728,-1.337856 q 0,3.846335 -1.05892,6.43843 -1.0343,2.550288 -2.93053,3.846335 -1.89621,1.25424 -4.48197,1.254239 z"
     style="font-size:65.7141px;line-height:1.25;font-family:SansSerif;-inkscape-font-specification:SansSerif;fill:url(#linearGradient620);stroke-width:1.64286;fill-opacity:1"
     id="path19252" />
  <path
     d="M 375.18099,65.192051 V 36.344543 q 0,-4.013567 -1.23132,-6.187582 -1.23131,-2.174014 -3.44767,-2.174014 -6.15655,0 -6.15655,12.291546 l -1.52684,-11.371771 h 2.01935 q 0.22164,-4.473454 1.92085,-6.647469 1.69921,-2.215824 4.9745,-2.215824 4.13721,0 6.40283,4.264415 2.26561,4.264414 2.26561,12.040699 v 28.847508 z m -16.05631,0 V 20.875589 h 4.72824 l 0.49253,9.364988 v 34.951474 z"
     style="font-size:65.7141px;line-height:1.25;font-family:SansSerif;-inkscape-font-specification:SansSerif;fill:url(#linearGradient622);stroke-width:1.64286;fill-opacity:1"
     id="path19254" />
  <path
     d="m 404.04294,66.028212 q -5.93492,0 -8.59455,-4.180799 -2.63501,-4.180798 -2.63501,-13.378556 v -7.525436 h 5.22076 v 7.107357 q 0,5.267806 1.5022,7.650861 1.52683,2.383055 4.99913,2.383055 1.23131,0 2.61038,-0.20904 1.37907,-0.250847 3.15216,-0.627119 l 0.59103,7.776284 q -1.72384,0.501696 -3.3738,0.752544 -1.62533,0.250849 -3.4723,0.250849 z M 392.81338,44.28806 V 7.4970336 h 5.22076 V 44.28806 Z M 386.2628,28.150179 v -7.27459 h 23.64119 v 7.27459 z"
     style="font-size:65.7141px;line-height:1.25;font-family:SansSerif;-inkscape-font-specification:SansSerif;fill:url(#linearGradient624);stroke-width:1.64286;fill-opacity:1"
     id="path19256" />
</svg>
