<?xml version="1.0" encoding="UTF-8" standalone="no"?>
<svg
   y="551.165"
   x="960"
   version="1.1"
   width="412"
   height="67"
   viewBox="0 0 412 67"
   id="svg4578"
   sodipodi:docname="logo_light.svg"
   inkscape:version="1.1 (c68e22c387, 2021-05-23)"
   xmlns:inkscape="http://www.inkscape.org/namespaces/inkscape"
   xmlns:sodipodi="http://sodipodi.sourceforge.net/DTD/sodipodi-0.dtd"
   xmlns:xlink="http://www.w3.org/1999/xlink"
   xmlns="http://www.w3.org/2000/svg"
   xmlns:svg="http://www.w3.org/2000/svg">
  <defs
     id="defs30">
    <linearGradient
       inkscape:collect="always"
       id="linearGradient18858">
      <stop
         style="stop-color:#483737;stop-opacity:1;"
         offset="0"
         id="stop18854" />
      <stop
         style="stop-color:#483737;stop-opacity:0;"
         offset="1"
         id="stop18856" />
    </linearGradient>
    <linearGradient
       inkscape:collect="always"
       xlink:href="#linearGradient18858"
       id="linearGradient18860"
       x1="13.862642"
       y1="26.186039"
       x2="906.80804"
       y2="80.810684"
       gradientUnits="userSpaceOnUse" />
    <linearGradient
       inkscape:collect="always"
       xlink:href="#linearGradient18858"
       id="linearGradient19277"
       gradientUnits="userSpaceOnUse"
       x1="13.862642"
       y1="26.186039"
       x2="906.80804"
       y2="80.810684" />
    <linearGradient
       inkscape:collect="always"
       xlink:href="#linearGradient18858"
       id="linearGradient19279"
       gradientUnits="userSpaceOnUse"
       x1="13.862642"
       y1="26.186039"
       x2="906.80804"
       y2="80.810684" />
    <linearGradient
       inkscape:collect="always"
       xlink:href="#linearGradient18858"
       id="linearGradient19281"
       gradientUnits="userSpaceOnUse"
       x1="13.862642"
       y1="26.186039"
       x2="906.80804"
       y2="80.810684" />
    <linearGradient
       inkscape:collect="always"
       xlink:href="#linearGradient18858"
       id="linearGradient19283"
       gradientUnits="userSpaceOnUse"
       x1="13.862642"
       y1="26.186039"
       x2="906.80804"
       y2="80.810684" />
    <linearGradient
       inkscape:collect="always"
       xlink:href="#linearGradient18858"
       id="linearGradient19285"
       gradientUnits="userSpaceOnUse"
       x1="13.862642"
       y1="26.186039"
       x2="906.80804"
       y2="80.810684" />
    <linearGradient
       inkscape:collect="always"
       xlink:href="#linearGradient18858"
       id="linearGradient19287"
       gradientUnits="userSpaceOnUse"
       x1="13.862642"
       y1="26.186039"
       x2="906.80804"
       y2="80.810684" />
    <linearGradient
       inkscape:collect="always"
       xlink:href="#linearGradient18858"
       id="linearGradient19289"
       gradientUnits="userSpaceOnUse"
       x1="13.862642"
       y1="26.186039"
       x2="906.80804"
       y2="80.810684" />
    <linearGradient
       inkscape:collect="always"
       xlink:href="#linearGradient18858"
       id="linearGradient19291"
       gradientUnits="userSpaceOnUse"
       x1="13.862642"
       y1="26.186039"
       x2="906.80804"
       y2="80.810684" />
    <linearGradient
       inkscape:collect="always"
       xlink:href="#linearGradient18858"
       id="linearGradient19293"
       gradientUnits="userSpaceOnUse"
       x1="13.862642"
       y1="26.186039"
       x2="906.80804"
       y2="80.810684" />
    <linearGradient
       inkscape:collect="always"
       xlink:href="#linearGradient18858"
       id="linearGradient19295"
       gradientUnits="userSpaceOnUse"
       x1="13.862642"
       y1="26.186039"
       x2="906.80804"
       y2="80.810684" />
    <linearGradient
       inkscape:collect="always"
       xlink:href="#linearGradient18858"
       id="linearGradient19297"
       gradientUnits="userSpaceOnUse"
       x1="13.862642"
       y1="26.186039"
       x2="906.80804"
       y2="80.810684" />
    <linearGradient
       inkscape:collect="always"
       xlink:href="#linearGradient18858"
       id="linearGradient19299"
       gradientUnits="userSpaceOnUse"
       x1="13.862642"
       y1="26.186039"
       x2="906.80804"
       y2="80.810684" />
    <linearGradient
       inkscape:collect="always"
       xlink:href="#linearGradient18858"
       id="linearGradient19301"
       gradientUnits="userSpaceOnUse"
       x1="13.862642"
       y1="26.186039"
       x2="906.80804"
       y2="80.810684" />
  </defs>
  <sodipodi:namedview
     id="namedview28"
     pagecolor="#ffffff"
     bordercolor="#666666"
     borderopacity="1.0"
     inkscape:pageshadow="2"
     inkscape:pageopacity="0.0"
     inkscape:pagecheckerboard="0"
     showgrid="false"
     inkscape:zoom="2.7257282"
     inkscape:cx="206"
     inkscape:cy="33.385574"
     inkscape:window-width="3440"
     inkscape:window-height="1377"
     inkscape:window-x="-8"
     inkscape:window-y="-8"
     inkscape:window-maximized="1"
     inkscape:current-layer="text1112" />
  <metadata
     id="metadata4584">image/svg+xml</metadata>
  <linearGradient
     id="3d_gradient2-logo-be9fcf93-76f3-4195-b816-3f382377cd48"
     x1="30%"
     y1="120%"
     x2="-10%"
     y2="30%"
     spreadMethod="pad">
    <stop
       offset="0%"
       stop-color="#ffffff"
       id="stop4559" />
    <stop
       offset="100%"
       stop-color="#000000"
       id="stop4561" />
  </linearGradient>
  <linearGradient
     id="3d_gradient3-logo-be9fcf93-76f3-4195-b816-3f382377cd48"
     x1="30%"
     y1="120%"
     x2="-10%"
     y2="30%"
     spreadMethod="pad"
     gradientTransform="rotate(-30)">
    <stop
       offset="0%"
       stop-color="#ffffff"
       id="stop4564" />
    <stop
       offset="50%"
       stop-color="#cccccc"
       id="stop4566" />
    <stop
       offset="100%"
       stop-color="#000000"
       id="stop4568" />
  </linearGradient>
  <g
     id="logo-group">
    <g
       aria-label="AI00 Assistant"
       transform="matrix(0.76748417,0,0,1.3029585,-1.1371407,1.1382262)"
       id="text1112"
       style="font-size:65.7141px;line-height:1.25;fill:url(#linearGradient18860);stroke-width:1.64286">
      <path
         d="M 3.2429456,49.368118 16.398601,3.8046284 h 9.30522 L 38.859476,49.368118 H 32.121214 L 21.339994,9.3235863 H 20.762428 L 9.9812082,49.368118 Z M 9.3394689,38.266029 V 32.169505 H 32.442083 v 6.096524 z"
         style="font-family:SansSerif;-inkscape-font-specification:SansSerif;fill:url(#linearGradient19277)"
         id="path19232" />
      <path
         d="M 56.314784,49.368118 V 3.8046284 h 6.417393 V 49.368118 Z m -10.620785,0 v -6.096523 h 27.723137 v 6.096523 z m 0,-39.4669663 V 3.8046284 h 27.723137 v 6.0965233 z"
         style="font-family:SansSerif;-inkscape-font-specification:SansSerif;fill:url(#linearGradient19279)"
         id="path19234" />
      <path
         d="m 98.059924,50.009858 q -15.530091,0 -15.530091,-23.102615 0,-23.7443539 15.530091,-23.7443539 15.530086,0 15.530086,23.7443539 0,23.102615 -15.530086,23.102615 z m 0,-18.28957 q -2.149827,0 -3.497479,-1.315566 -1.315566,-1.347652 -1.315566,-3.497479 0,-2.181914 1.315566,-3.497479 1.347652,-1.315566 3.497479,-1.315566 2.181916,0 3.497476,1.315566 1.31557,1.315565 1.31557,3.497479 0,2.149827 -1.31557,3.497479 -1.31556,1.315566 -3.497476,1.315566 z m 0,12.385568 q 8.663476,0 8.663476,-17.198613 0,-17.8403524 -8.663476,-17.8403524 -8.663481,0 -8.663481,17.8403524 0,17.198613 8.663481,17.198613 z"
         style="font-family:SansSerif;-inkscape-font-specification:SansSerif;fill:url(#linearGradient19281)"
         id="path19236" />
      <path
         d="m 136.56428,50.009858 q -15.53009,0 -15.53009,-23.102615 0,-23.7443539 15.53009,-23.7443539 15.53009,0 15.53009,23.7443539 0,23.102615 -15.53009,23.102615 z m 0,-18.28957 q -2.14983,0 -3.49748,-1.315566 -1.31556,-1.347652 -1.31556,-3.497479 0,-2.181914 1.31556,-3.497479 1.34765,-1.315566 3.49748,-1.315566 2.18191,0 3.49748,1.315566 1.31556,1.315565 1.31556,3.497479 0,2.149827 -1.31556,3.497479 -1.31557,1.315566 -3.49748,1.315566 z m 0,12.385568 q 8.66348,0 8.66348,-17.198613 0,-17.8403524 -8.66348,-17.8403524 -8.66348,0 -8.66348,17.8403524 0,17.198613 8.66348,17.198613 z"
         style="font-family:SansSerif;-inkscape-font-specification:SansSerif;fill:url(#linearGradient19283)"
         id="path19238" />
      <path
         d="M 195.76474,49.368118 208.92039,3.8046284 h 9.30522 L 231.38127,49.368118 H 224.643 L 213.86178,9.3235863 h -0.57756 L 202.503,49.368118 Z m 6.09652,-11.102089 v -6.096524 h 23.10261 v 6.096524 z"
         style="font-family:SansSerif;-inkscape-font-specification:SansSerif;fill:url(#linearGradient19285)"
         id="path19240" />
      <path
         d="m 249.44622,50.009858 q -3.85044,0 -6.60992,-0.224609 -2.72739,-0.224609 -5.00556,-0.738 l 0.77008,-6.160698 q 3.36914,0.513392 5.93609,0.770088 2.59905,0.256695 4.90931,0.256695 5.166,0 7.47626,-0.994696 2.34235,-1.026782 2.34235,-3.240783 0,-1.540174 -0.83426,-2.278175 -0.80218,-0.770087 -2.50278,-1.187217 l -7.82922,-1.989392 q -5.03766,-1.283479 -7.41209,-3.17661 -2.34235,-1.89313 -2.34235,-5.743566 0,-5.583132 4.26756,-8.085915 4.29966,-2.502784 13.82949,-2.502784 2.47069,0 4.58843,0.160435 2.14983,0.128348 4.39592,0.481305 l -0.70592,5.904001 q -2.59904,-0.256696 -4.58843,-0.352956 -1.98939,-0.09626 -3.88253,-0.09626 -5.71147,0 -8.27843,0.994696 -2.56696,0.962609 -2.56696,3.176609 0,1.476 1.05887,2.149827 1.05887,0.641739 3.24078,1.187217 l 6.28905,1.540175 q 5.35852,1.283478 7.82922,3.433305 2.50278,2.149827 2.50278,6.256958 0,5.486871 -4.01087,7.989654 -4.01087,2.470697 -12.86687,2.470697 z"
         style="font-family:SansSerif;-inkscape-font-specification:SansSerif;fill:url(#linearGradient19287)"
         id="path19242" />
      <path
         d="m 287.95057,50.009858 q -3.85044,0 -6.60992,-0.224609 -2.72739,-0.224609 -5.00556,-0.738 l 0.77008,-6.160698 q 3.36913,0.513392 5.93609,0.770088 2.59905,0.256695 4.90931,0.256695 5.166,0 7.47626,-0.994696 2.34235,-1.026782 2.34235,-3.240783 0,-1.540174 -0.83426,-2.278175 -0.80218,-0.770087 -2.50279,-1.187217 l -7.82922,-1.989392 q -5.03765,-1.283479 -7.41208,-3.17661 -2.34235,-1.89313 -2.34235,-5.743566 0,-5.583132 4.26756,-8.085915 4.29966,-2.502784 13.82949,-2.502784 2.47069,0 4.58843,0.160435 2.14983,0.128348 4.39592,0.481305 l -0.70592,5.904001 q -2.59904,-0.256696 -4.58843,-0.352956 -1.9894,-0.09626 -3.88253,-0.09626 -5.71148,0 -8.27843,0.994696 -2.56696,0.962609 -2.56696,3.176609 0,1.476 1.05887,2.149827 1.05887,0.641739 3.24078,1.187217 l 6.28905,1.540175 q 5.35852,1.283478 7.82922,3.433305 2.50278,2.149827 2.50278,6.256958 0,5.486871 -4.01087,7.989654 -4.01087,2.470697 -12.86687,2.470697 z"
         style="font-family:SansSerif;-inkscape-font-specification:SansSerif;fill:url(#linearGradient19289)"
         id="path19244" />
      <path
         d="M 327.93093,49.368118 V 17.281154 h 6.80244 v 32.086964 z m -12.96313,0 v -5.583132 h 13.60487 v 5.583132 z m 19.12383,0 v -5.583132 h 11.10209 v 5.583132 z m -17.19861,-28.42905 v -5.583132 h 17.84035 v 5.583132 z M 331.10754,9.9653256 q -1.9573,0 -3.36913,-1.3797394 -1.37974,-1.4118265 -1.37974,-3.3691313 0,-1.9893918 1.37974,-3.3691313 1.41183,-1.37973951 3.36913,-1.37973951 1.98939,0 3.36913,1.37973951 1.37974,1.3797395 1.37974,3.3691313 0,1.9573048 -1.37974,3.3691313 -1.37974,1.3797394 -3.36913,1.3797394 z"
         style="font-family:SansSerif;-inkscape-font-specification:SansSerif;fill:url(#linearGradient19291)"
         id="path19246" />
      <path
         d="m 364.9593,50.009858 q -3.85044,0 -6.60992,-0.224609 -2.72739,-0.224609 -5.00557,-0.738 l 0.77009,-6.160698 q 3.36913,0.513392 5.93609,0.770088 2.59904,0.256695 4.90931,0.256695 5.166,0 7.47626,-0.994696 2.34235,-1.026782 2.34235,-3.240783 0,-1.540174 -0.83426,-2.278175 -0.80218,-0.770087 -2.50279,-1.187217 l -7.82922,-1.989392 q -5.03765,-1.283479 -7.41209,-3.17661 -2.34234,-1.89313 -2.34234,-5.743566 0,-5.583132 4.26756,-8.085915 4.29965,-2.502784 13.82948,-2.502784 2.4707,0 4.58844,0.160435 2.14983,0.128348 4.39591,0.481305 l -0.70591,5.904001 q -2.59904,-0.256696 -4.58844,-0.352956 -1.98939,-0.09626 -3.88252,-0.09626 -5.71148,0 -8.27844,0.994696 -2.56695,0.962609 -2.56695,3.176609 0,1.476 1.05887,2.149827 1.05887,0.641739 3.24078,1.187217 l 6.28905,1.540175 q 5.35852,1.283478 7.82922,3.433305 2.50278,2.149827 2.50278,6.256958 0,5.486871 -4.01087,7.989654 -4.01087,2.470697 -12.86687,2.470697 z"
         style="font-family:SansSerif;-inkscape-font-specification:SansSerif;fill:url(#linearGradient19293)"
         id="path19248" />
      <path
         d="m 412.25549,50.009858 q -7.73296,0 -11.19835,-3.208697 -3.43331,-3.208696 -3.43331,-10.267829 v -5.775653 h 6.80244 v 5.454784 q 0,4.042957 1.9573,5.871914 1.98939,1.828957 6.51366,1.828957 1.60434,0 3.40121,-0.160435 1.79687,-0.192521 4.10714,-0.481304 l 0.77008,5.968175 q -2.24608,0.385044 -4.39591,0.577566 -2.11774,0.192522 -4.52426,0.192522 z M 397.62383,33.324636 V 5.088107 h 6.80244 V 33.324636 Z M 389.0887,20.939068 v -5.583132 h 30.80348 v 5.583132 z"
         style="font-family:SansSerif;-inkscape-font-specification:SansSerif;fill:url(#linearGradient19295)"
         id="path19250" />
      <path
         d="m 451.59408,49.688988 -0.44922,-10.075307 -0.89843,-2.823653 V 27.9982 q 0,-3.401218 -2.40652,-4.97348 -2.37444,-1.604348 -7.09122,-1.732696 l -8.15009,-0.224609 0.64174,-6.032349 6.86661,0.09626 q 8.43887,0.128348 12.51391,3.657914 4.10714,3.497479 4.10714,10.235742 V 43.20742 l 5.77565,0.705913 v 5.454784 z m -12.00052,0.32087 q -5.32644,0 -8.24635,-2.566958 -2.91992,-2.566957 -2.91992,-7.251654 0,-5.39061 4.01087,-8.278437 4.04296,-2.887826 11.39088,-2.887826 3.04826,0 5.42269,0.385043 2.40653,0.352957 4.26757,1.090957 l -1.41183,4.620523 q -2.14982,-0.481305 -4.20339,-0.545478 -2.05356,-0.09626 -4.20339,-0.09626 -8.856,0 -8.856,5.39061 0,2.246087 1.50808,3.465392 1.54018,1.219305 4.33174,1.219305 3.17661,0 5.29435,-1.090957 2.14983,-1.090957 3.2087,-2.791566 1.05887,-1.700609 1.05887,-3.497479 v -3.722088 l 1.98939,8.727654 h -2.6953 l 1.09095,-1.026783 q 0,2.952001 -1.37974,4.941393 -1.34765,1.957305 -3.81835,2.952001 -2.47069,0.962609 -5.83982,0.962608 z"
         style="font-family:SansSerif;-inkscape-font-specification:SansSerif;fill:url(#linearGradient19297)"
         id="path19252" />
      <path
         d="M 490.16262,49.368118 V 27.228113 q 0,-3.080349 -1.60435,-4.748871 -1.60435,-1.668522 -4.49217,-1.668522 -8.02174,0 -8.02174,9.433567 l -1.9894,-8.727654 h 2.63113 q 0.28879,-3.433305 2.50279,-5.101827 2.214,-1.70061 6.48156,-1.70061 5.39061,0 8.34262,3.272871 2.952,3.27287 2.952,9.241046 v 22.140005 z m -20.9207,0 V 15.355936 h 6.1607 l 0.64174,7.18748 v 26.824702 z"
         style="font-family:SansSerif;-inkscape-font-specification:SansSerif;fill:url(#linearGradient19299)"
         id="path19254" />
      <path
         d="m 527.76855,50.009858 q -7.73296,0 -11.19835,-3.208697 -3.43331,-3.208696 -3.43331,-10.267829 v -5.775653 h 6.80244 v 5.454784 q 0,4.042957 1.9573,5.871914 1.9894,1.828957 6.51366,1.828957 1.60435,0 3.40122,-0.160435 1.79687,-0.192521 4.10713,-0.481304 l 0.77009,5.968175 q -2.24609,0.385044 -4.39592,0.577566 -2.11774,0.192522 -4.52426,0.192522 z M 513.13689,33.324636 V 5.088107 h 6.80244 v 28.236529 z m -8.53513,-12.385568 v -5.583132 h 30.80349 v 5.583132 z"
         style="font-family:SansSerif;-inkscape-font-specification:SansSerif;fill:url(#linearGradient19301)"
         id="path19256" />
    </g>
  </g>
</svg>
